<?xml version="1.0" encoding="UTF-8"?><svg viewBox="0 0 868 1000" xmlns="http://www.w3.org/2000/svg" xmlns:xlink="http://www.w3.org/1999/xlink"><style>:root>svg{display:none}:root>svg:target{display:block}</style><svg viewBox="0 0 60 61" id="arrow" xmlns="http://www.w3.org/2000/svg"><g stroke="#000" fill="none" fill-rule="evenodd"><path d="M.5 1.183h59v59H.5z"/><path stroke-width="2" d="M33.913 23.683L26 30.183l7.913 6.5"/></g></svg><svg viewBox="0 0 868 1000" id="logo" xmlns="http://www.w3.org/2000/svg"><path d="M206.6 605.6v-6.71c0-25.56 4.79-69.96 14.38-133.2 14.69-95.61 30.24-171.1 46.63-226.47 2.99-20.01 5.65-34.39 8-43.13 4.26-16.39 8.08-32.04 11.49-46.95 7.46-32.58 11.62-55.15 12.47-67.72.85-12.56 1.28-21.29 1.28-26.19 0-22.57-4.9-33.86-14.69-33.86-6.82 0-15.66 5.01-26.51 15.02-16.82 15.97-32.41 34.87-46.79 56.69-14.38 21.83-22.84 37.97-25.4 48.4-.43 1.27-1.23 2.66-2.39 4.15-1.18 1.5-2.29 2.45-3.36 2.88-1.06.43-1.91.64-2.54.64-1.5 0-2.24-.64-2.24-1.92v-.96c2.76-11.71 12.08-29.6 27.94-53.66 15.87-24.06 32.85-44.83 50.95-62.29 14.48-13.41 26.73-20.12 36.74-20.12 12.78 0 19.17 13.31 19.17 39.93 0 28.54-7.25 70.6-21.73 126.17 24.07-57.28 51.21-98.81 81.47-124.58 23.84-20.23 46.84-30.34 68.98-30.34 12.78 0 24.17 3.31 34.18 9.91 23.21 15.12 34.82 41.74 34.82 79.86 0 59.63-42.06 116.8-126.18 171.52-23.84 15.77-52.59 33.22-86.24 52.39-1.5.86-4.42 2.67-8.78 5.44-4.37 2.77-6.55 6.71-6.55 11.82 0 7.66 4.16 17.04 12.45 28.11 11.29 14.9 27.05 30.45 47.27 46.63 31.52 24.7 65.01 46.63 100.47 65.8 35.46 19.17 63.5 30.34 84.16 33.54 1.06.22 1.6 1.07 1.6 2.55 0 1.07-.48 2.29-1.43 3.67-.96 1.39-2.14 2.56-3.52 3.52s-2.71 1.44-3.99 1.44c-20.66-3.4-48.99-14.74-84.96-34.02-35.99-19.27-69.75-41.37-101.27-66.27-40.68-32.37-61.01-58.67-61.01-78.9 0-10.86 5.44-19.81 16.29-26.83l21.08-12.46c23.42-13.41 46.91-27.69 70.43-42.8 23.54-15.12 45.1-32.05 64.7-50.79 36.4-34.49 54.61-71.12 54.61-109.88 0-35.14-10.97-59.84-32.9-74.11-9.38-5.96-20.01-8.94-31.93-8.94-18.97 0-38.76 8.52-59.43 25.56-37.9 32.58-69.95 91.35-96.15 176.32-4.89 34.08-10.42 75.92-16.61 125.53 0 3.41-5 42.6-15.01 117.55-11.5 85.18-21.61 131.28-30.34 138.31-1.5 1.06-2.88 1.7-4.16 1.92-3.42-.03-5.23-4.08-5.45-12.17zm44.08-236.69l6.07-49.19c-10.01 49.4-18.42 96.57-25.23 141.5-9.59 63.67-14.38 108.06-14.38 133.2l.32 7.99c5.75-23.22 16.82-101.04 33.22-233.5z"/><path d="M452.14 479.12c-18.28-12.97-27.88-34.08-28.76-63.33-7.2-13.86-10.8-29.65-10.8-47.37 0-14.52 2.16-29.48 6.48-44.88 9.86-33.35 27.31-62.44 52.36-87.27 11.64-11.41 23.97-20.53 36.99-27.34 13.02-6.82 25.85-10.22 38.48-10.22 14.84 0 27.43 4.71 37.73 14.13 12.97 11.64 21.56 29.09 25.77 52.36 2.11 11.08 3.16 22.77 3.16 35.07 0 19.61-2.49 39.84-7.48 60.67-9.19 38.23-24.65 69.54-46.38 93.92-20.83 23.5-44.6 35.24-71.31 35.24-14.09-.01-26.15-3.67-36.24-10.98zm104.72-26.43c20.28-22.94 34.91-52.8 43.88-89.6 4.87-20.39 7.31-40.17 7.31-59.34 0-25.04-4.12-46.4-12.38-64.08s-21.03-28.84-38.32-33.49c-4.32-1.11-8.93-1.66-13.8-1.66-11.75 0-23.64 3.13-35.66 9.39s-23.4 14.65-34.16 25.18c-23.49 23.38-39.94 50.87-49.37 82.45-3.44 12.3-5.35 22.11-5.73 29.42-.38 7.31-.58 12.03-.58 14.13 0 13.63 1.99 25.43 5.98 35.41 2.88-33.02 16.96-67.55 42.22-103.56 1.11-1.55 2.33-2.33 3.66-2.33.66 0 1 .39 1 1.16 0 .66-.28 1.39-.83 2.16-27.38 39.01-41.06 76.85-41.06 113.53 6.53 12.53 17.07 22.88 31.58 31.08.33.22.5.61.5 1.16 0 .66-.33 1.5-1 2.49-1.21 1.33-2.33 1.99-3.32 1.99l-.66-.17c-10.85-5.98-19.5-13.24-25.93-21.78 3.32 21.5 12.25 37.34 26.76 47.54 9.64 7.09 21.23 10.64 34.74 10.64 24.16.03 45.89-10.55 65.17-31.72zM12 772.11c0-14.8 14.18-31.06 42.53-48.78.42-4.59.63-8.76.63-12.51 0-7.51-.94-13.71-2.81-18.61s-4.27-7.35-7.19-7.35c-4.17 0-10.32 7.61-18.45 22.83-1.67 2.92-4.07 4.79-7.19 5.63-1.67 0-2.5-.83-2.5-2.5 0-9.8.94-26.16 2.81-49.1 12.09-102.78 32.52-178.76 61.29-227.96 21.47-36.27 41.07-54.41 58.79-54.41 6.05 0 10.99 2.66 14.86 7.97 3.84 5.32 5.77 13.6 5.77 24.86l-.31 7.51c-1.04 22.93-11.63 55.04-31.73 96.31-20.14 41.28-53.01 90.48-98.67 147.6-1.25 10.63-1.88 20.01-1.88 28.14 8.34-11.88 16.16-17.82 23.45-17.82 4.79 0 8.38 3.02 10.8 9.07 2.38 6.05 3.59 13.13 3.59 21.26 0 3.75-.21 7.82-.63 12.2 10.22-6.05 20.64-12.09 31.27-18.14 24.6-13.13 43.57-25.33 56.91-36.59 1.46-1.88 3.13-2.81 5-2.81 1.46 0 2.19.73 2.19 2.19 0 6.46-21.47 21.89-64.42 46.28-11.47 6.46-22.41 12.82-32.83 19.08-8.13 33.36-20.22 52.95-36.27 58.79-2.08.63-3.96.94-5.63.94-6.25 0-9.38-4.69-9.38-14.08zm23.45-.93c6.46-5.63 12.09-18.14 16.89-37.53-19.8 12.93-29.71 24.29-29.71 34.09 0 5 1.67 7.51 5 7.51 2.09-.01 4.7-1.36 7.82-4.07zm85.37-256.74c19.39-40.44 29.08-72.34 29.08-95.69 0-10.22-1.67-17.72-5-22.51-2.92-3.96-6.57-5.94-10.94-5.94-12.51 0-27.31 14.49-44.4 43.47-13.13 22.31-25.23 53.26-36.27 92.87-9.59 34.61-17.09 76.09-22.52 124.46 41.69-52.96 71.71-98.51 90.05-136.66z"/><path d="M149.59 703.32c-2.71-4.38-4.07-9.59-4.07-15.64 0-6.67 2.08-15.11 6.25-25.33l1.88-3.13c5.84-10.42 11.26-15.64 16.26-15.64 5.21 0 9.49 5.63 12.82 16.89.21.83.31 1.77.31 2.81 0 6.46-4.38 12.51-13.13 18.14-5 3.34-9.49 5-13.45 5 1.88 8.76 7.19 15.11 15.95 19.08 4.59 1.88 9.69 2.81 15.32 2.81 11.47 0 23.56-4.17 36.27-12.51 11.26-7.09 22.2-17.93 32.83-32.52 2.08-2.92 4.38-4.38 6.88-4.38 1.25 0 1.88.83 1.88 2.5 0 1.04-.52 2.4-1.56 4.07-12.72 17.51-25.85 30.54-39.4 39.09-15.22 9.8-29.39 14.7-42.53 14.7-15.41.01-26.25-5.31-32.51-15.94zm21.89-32.52c.63-.63.94-1.25.94-1.88v-.63c-2.08-7.51-4.48-11.99-7.19-13.45-.63 0-1.67 1.46-3.13 4.38l-1.88 4.07c-1.25 3.13-1.88 5.63-1.88 7.51 0 3.13 1.36 4.69 4.07 4.69h.94c3.54-.42 6.26-1.98 8.13-4.69z"/><path d="M305.32 702.38c-2.71-4.79-4.07-11.05-4.07-18.76l.31-5.94c-10.22 8.96-20.53 13.45-30.96 13.45-3.96 0-7.4-.68-10.32-2.03-2.92-1.36-5.05-3.18-6.4-5.47s-2.04-4.69-2.04-7.19c0-3.54 1.25-7.61 3.75-12.2 6.25-10.01 14.49-17.2 24.7-21.58 4.79-2.08 9.38-3.13 13.76-3.13 8.55.42 13.45 5.21 14.7 14.38 1.88-3.96 4.38-5.94 7.51-5.94 1.46 0 2.19.73 2.19 2.19l-2.81 8.13c-2.5 6.25-3.75 13.03-3.75 20.33 0 18.35 8.86 27.52 26.58 27.52 3.96 0 8.03-.52 12.2-1.56 20.22-5 40.24-18.97 60.04-41.9 2.08-2.5 4.17-3.75 6.25-3.75 1.25 0 1.88.73 1.88 2.19.21 1.46-.52 3.13-2.19 5-23.14 26.89-46.59 43.26-70.36 49.1-4.79 1.25-9.38 1.88-13.76 1.88-12.93-.02-22-4.92-27.21-14.72zm-.94-37.84l1.88-4.69c-2.08 2.08-3.96 3.13-5.63 3.13-1.46 0-2.19-.63-2.19-1.88-.83-7.09-4.48-10.63-10.94-10.63-2.92 0-6.05.63-9.38 1.88-6.05 2.71-10.74 6.78-14.07 12.2-1.04 2.08-1.56 3.96-1.56 5.63 0 1.46.42 2.97 1.25 4.53.83 1.56 2.44 2.87 4.84 3.91s5.17 1.56 8.3 1.56c10.62 0 19.79-5.21 27.5-15.64zm11.26-5.94a8.69 8.69 0 01-1.56 2.19l1.56-2.19z"/><path d="M453.86 702.38c-1.46-2.5-2.5-5.42-3.13-8.76-9.8 15.01-20.33 22.52-31.58 22.52-3.34 0-6.25-.94-8.76-2.81-4.17-2.92-6.25-8.03-6.25-15.32 0-8.55 1.36-18.35 4.07-29.39l.63-1.88c1.04-5.21 3.65-8.76 7.82-10.63 1.04-.63 1.98-.94 2.81-.94.63 0 1.25.16 1.88.47.63.31.94.99.94 2.03 0 2.08-1.15 4.07-3.44 5.94l-.31.63c-2.08 8.13-3.44 16.99-4.07 26.58 0 6.05 1.67 10.22 5 12.51 1.67 1.25 3.54 1.88 5.63 1.88 2.71 0 5.32-.73 7.82-2.19 7.51-3.75 13.65-14.7 18.45-32.83l.63-3.44c.21-.21.31-.52.31-.94 0-.83.42-1.56 1.25-2.19 0-.21.1-.42.31-.63l.63-.63.31-.63h.31c1.46-1.88 3.23-2.81 5.32-2.81 1.25 0 1.88.73 1.88 2.19l-.63 4.69c-.83 4.59-1.25 8.86-1.25 12.82 0 18.35 8.86 27.52 26.58 27.52 3.75 0 7.82-.52 12.2-1.56 20.22-5 40.24-18.97 60.04-41.9 2.08-2.5 4.07-3.75 5.94-3.75 1.46 0 2.19.73 2.19 2.19s-.73 3.13-2.19 5c-23.14 26.89-46.59 43.26-70.36 49.1-5 1.25-9.59 1.88-13.76 1.88-12.94-.02-22.01-4.92-27.22-14.72z"/><path d="M557.68 707.7c.21-11.88 1.04-25.43 2.5-40.65 3.13-33.56 7.51-63.9 13.13-91l-11.88.31c-15.64 0-31.17-1.67-46.59-5-.83-.21-1.25-1.15-1.25-2.81 0-2.5 1.56-4.79 4.69-6.88 1.46-.63 2.81-.94 4.07-.94 15.22 3.13 32.94 4.69 53.16 4.69 12.09-55.87 27.52-99.75 46.28-131.65 2.08-3.54 4.48-5.32 7.19-5.32 1.46 0 2.19.73 2.19 2.19 0 .83-.31 1.88-.94 3.13-18.35 31.48-33.46 75.15-45.34 131.02 5.21-.63 10.42-1.46 15.64-2.5 22.52-3.96 42.74-13.13 60.67-27.52 1.46-1.25 3.02-1.88 4.69-1.88.83 0 1.46.42 1.88 1.25 0 2.5-1.25 5-3.75 7.51-24.39 19.39-51.49 30.54-81.3 33.46-5 26.06-9.07 54.93-12.2 86.62-1.46 14.59-2.19 29.81-2.19 45.66 0 32.31 4.69 53.99 14.07 65.04 4.79 5.84 10.42 8.76 16.89 8.76 7.71 0 16.99-4.17 27.83-12.51 26.48-21.68 51.7-56.29 75.68-103.82 2.08-3.54 4.48-5.52 7.19-5.94 1.67 0 2.5.73 2.5 2.19 0 .83-.21 1.77-.63 2.81-25.64 50.66-53.16 87.98-82.56 111.95-13.55 10.63-25.75 15.95-36.59 15.95-23.36-.01-35.03-28.05-35.03-84.12z"/><path d="M607.71 973.5c-2.71-7.3-4.07-16.16-4.07-26.58 0-20.43 4.59-43.05 13.76-67.86 8.55-22.72 20.12-43.05 34.71-60.98 22.52-25.85 51.18-49.72 85.99-71.61 2.08-16.26 3.96-33.46 5.63-51.6-9.59 14.18-19.91 21.26-30.96 21.26-3.13 0-5.94-.94-8.44-2.81-4.17-2.92-6.25-8.03-6.25-15.32 0-8.55 1.36-18.35 4.07-29.39 1.04-6.05 3.75-10.22 8.13-12.51 1.25-.63 2.29-.94 3.13-.94 1.88 0 2.81.83 2.81 2.5s-1.15 3.75-3.44 6.25c-2.29 8.34-3.75 17.3-4.38 26.89 0 9.59 3.44 14.38 10.32 14.38 12.09 0 21.16-12.72 27.21-38.15 1.46-17.09 2.19-26.68 2.19-28.77.63-3.13 2.5-5.63 5.63-7.51 1.25-.63 2.29-.94 3.13-.94 1.25 0 1.88.83 1.88 2.5-2.08 37.53-5.42 73.38-10.01 107.57 26.27-16.26 44.82-28.46 55.66-36.59 15.43-11.26 29.81-24.81 43.15-40.65 2.08-2.5 4.17-3.75 6.25-3.75 1.46 0 2.19.94 2.19 2.81 0 1.25-.73 2.71-2.19 4.38-14.8 17.51-30.4 32.26-46.74 44.25a643.635 643.635 0 01-50.83 33.62l-8.76 5.63c-12.72 90.48-31.69 155.62-56.91 195.44-19.18 30.44-39.3 45.66-60.35 45.66-10.42.02-17.92-5.72-22.51-17.18zm77.24-32.21c22.52-37.32 39.82-99.02 51.91-185.12-31.48 19.6-57.75 41.49-78.8 65.67-13.34 16.26-23.77 34.81-31.27 55.66-8.55 23.56-12.82 44.61-12.82 63.17 0 22.1 5.84 34.92 17.51 38.46 1.46.42 3.02.63 4.69.63 17.09-.01 33.35-12.83 48.78-38.47z"/></svg><svg viewBox="0 0 48 60" id="shop" xmlns="http://www.w3.org/2000/svg"><path d="M48 51.8l-3.4-38.7c-.1-.9-.8-1.5-1.6-1.5h-7.1C35.7 5.2 30.5 0 24 0S12.3 5.2 12.2 11.7H5.1c-.9 0-1.6.6-1.6 1.5L0 51.8v.1c0 4.4 4 8 9 8h30c5 0 9-3.6 9-8v-.1zM24 3.3c4.6 0 8.4 3.7 8.5 8.3h-17c.1-4.5 3.9-8.3 8.5-8.3zm15 53.4H9c-3.1 0-5.6-2.1-5.7-4.6L6.6 15h5.5v5c0 .9.7 1.7 1.7 1.7s1.7-.7 1.7-1.7v-5h17.1v5c0 .9.7 1.7 1.7 1.7S36 21 36 20v-5h5.5l3.3 37.1c-.2 2.5-2.7 4.6-5.8 4.6z" fill="#000" fill-rule="nonzero"/></svg><svg viewBox="0 0 110 110" id="star" xmlns="http://www.w3.org/2000/svg"><g stroke="#000" stroke-width="2" fill="none" fill-rule="evenodd" stroke-linecap="square"><path d="M54.5 1.5L55 109M16.991 17.346l76.015 76.015M1.498 55.251H109M17.346 93.009l76.015-76.015"/></g></svg></svg>