<?xml version="1.0" encoding="UTF-8"?>
<svg width="120px" height="19px" viewBox="0 0 120 19" version="1.1" xmlns="http://www.w3.org/2000/svg" xmlns:xlink="http://www.w3.org/1999/xlink">
    <!-- Generator: Sketch 58 (84663) - https://sketch.com -->
    <title>Group 2</title>
    <desc>Created with Sketch.</desc>
    <g id="Page-1" stroke="none" stroke-width="1" fill="none" fill-rule="evenodd">
        <g id="Artboard" transform="translate(-1061.000000, -216.000000)" fill="#F7B500">
            <g id="Group-4" transform="translate(871.000000, 215.000000)">
                <g id="Group-2" transform="translate(190.000000, 1.000000)">
                    <polygon id="Star" points="10 14.8746745 4.12214748 18.0901699 5.36390907 11.5063573 0.489434837 6.90983006 7.13473823 6.0563055 10 0 12.8652618 6.0563055 19.5105652 6.90983006 14.6360909 11.5063573 15.8778525 18.0901699"></polygon>
                    <polygon id="Star-Copy" points="35 14.8746745 29.1221475 18.0901699 30.3639091 11.5063573 25.4894348 6.90983006 32.1347382 6.0563055 35 0 37.8652618 6.0563055 44.5105652 6.90983006 39.6360909 11.5063573 40.8778525 18.0901699"></polygon>
                    <polygon id="Star-Copy-2" points="60 14.8746745 54.1221475 18.0901699 55.3639091 11.5063573 50.4894348 6.90983006 57.1347382 6.0563055 60 0 62.8652618 6.0563055 69.5105652 6.90983006 64.6360909 11.5063573 65.8778525 18.0901699"></polygon>
                    <polygon id="Star-Copy-3" points="85 14.8746745 79.1221475 18.0901699 80.3639091 11.5063573 75.4894348 6.90983006 82.1347382 6.0563055 85 0 87.8652618 6.0563055 94.5105652 6.90983006 89.6360909 11.5063573 90.8778525 18.0901699"></polygon>
                    <polygon id="Star-Copy-4" points="110 14.8746745 104.122147 18.0901699 105.363909 11.5063573 100.489435 6.90983006 107.134738 6.0563055 110 0 112.865262 6.0563055 119.510565 6.90983006 114.636091 11.5063573 115.877853 18.0901699"></polygon>
                </g>
            </g>
        </g>
    </g>
</svg>