<?xml version="1.0" encoding="UTF-8"?>
<svg width="173px" height="77px" viewBox="0 0 173 77" version="1.1" xmlns="http://www.w3.org/2000/svg" xmlns:xlink="http://www.w3.org/1999/xlink">
    <!-- Generator: Sketch 58 (84663) - https://sketch.com -->
    <title>casinoguru_logo</title>
    <desc>Created with Sketch.</desc>
    <g id="Page-1" stroke="none" stroke-width="1" fill="none" fill-rule="evenodd">
        <g id="Artboard" transform="translate(-30.000000, -21.000000)" fill-rule="nonzero">
            <g id="casinoguru_logo" transform="translate(30.000000, 21.000000)">
                <path d="M75.3341121,34.592233 C73.932243,34.8640777 72.635514,35 69.796729,35 C65.6962617,35 61,32.8592233 61,25.0436893 L61,23.9563107 C61,16.038835 65.6962617,14 69.796729,14 C71.8995327,14 73.932243,14.3058252 75.3691589,14.5097087 C75.6845794,14.5436893 75.8948598,14.6456311 75.8948598,14.9174757 L75.8948598,16.5485437 C75.8948598,16.7524272 75.8247664,16.8883495 75.5093458,16.8883495 C75.4742991,16.8883495 75.4392523,16.8883495 75.4042056,16.8883495 C74.2126168,16.7864078 71.7593458,16.5825243 69.8317757,16.5825243 C66.5724299,16.5825243 64.0490654,18.4174757 64.0490654,23.8883495 L64.0490654,24.9757282 C64.0490654,30.3786408 66.5724299,32.2815534 69.8317757,32.2815534 C71.7242991,32.2815534 74.1074766,32.1116505 75.3341121,32.0097087 C75.3691589,32.0097087 75.4392523,32.0097087 75.4742991,32.0097087 C75.8247664,32.0097087 76,32.1796117 76,32.5194175 L76,33.8446602 C76,34.3543689 75.7196262,34.5242718 75.3341121,34.592233 Z" id="Path" fill="#44BE4C"></path>
                <path d="M99.4095064,34 L97.464351,34 C97.1517367,34 96.9780622,33.7947883 96.9085923,33.5895765 L94.7550274,27.1596091 L86.2102377,27.1596091 L84.0914077,33.5895765 C84.0219378,33.8289902 83.7787934,34 83.5009141,34 L81.5557587,34 C81.2431444,34 81,33.7947883 81,33.5553746 C81,33.4869707 81,33.4185668 81.0347349,33.3501629 L87.1480804,15.1205212 C87.7038391,13.4104235 89.2669104,13 90.5173675,13 C91.7330896,13 93.2961609,13.3762215 93.8519196,15.0863192 L99.9652651,33.3501629 C100,33.4185668 100,33.4869707 100,33.5553746 C99.9652651,33.7947883 99.7915905,34 99.4095064,34 Z M91.142596,15.7019544 C91.0383912,15.3941368 90.8299817,15.1889251 90.5173675,15.1889251 C90.1700183,15.1889251 89.9616088,15.3941368 89.857404,15.7019544 L86.904936,24.7654723 L94.095064,24.7654723 L91.142596,15.7019544 Z" id="Shape" fill="#44BE4C"></path>
                <path d="M125.406977,35 L123.593023,35 C123.27907,35 123,34.6876033 123,34.3404959 L123,14.6247934 C123,14.3123967 123.244186,14 123.593023,14 L125.406977,14 C125.72093,14 126,14.277686 126,14.6247934 L126,34.3404959 C126,34.6876033 125.755814,35 125.406977,35 Z" id="Path" fill="#44BE4C"></path>
                <path d="M148.042254,35 L146.024145,35 C145.511066,35 145.134809,34.7917355 144.997988,34.4793388 L134.975855,18.6165289 C134.94165,18.5471074 134.907445,18.5123967 134.873239,18.5123967 C134.839034,18.5123967 134.839034,18.5471074 134.839034,18.6165289 L134.839034,34.3752066 C134.839034,34.6876033 134.565392,35 134.257545,35 L132.581489,35 C132.273642,35 132,34.9305785 132,34.6181818 L132,14.9371901 C132,14.4165289 132.410463,14 132.957746,14 L134.736419,14 C135.65996,14 135.796781,14.1735537 136.070423,14.6595041 L146.024145,30.4181818 L146.092555,30.522314 C146.126761,30.522314 146.126761,30.4528926 146.126761,30.4181818 L146.126761,14.6247934 C146.126761,14.3123967 146.400402,14 146.708249,14 L148.418511,14 C148.760563,14 149,14.3123967 149,14.6247934 L149,34.0280992 C148.965795,34.5834711 148.555332,35 148.042254,35 Z" id="Path" fill="#44BE4C"></path>
                <path d="M164.017544,35 C158.789474,35 155,32.0436893 155,24.8737864 L155,24.1262136 C155,16.9563107 158.789474,14 164.017544,14 C169.245614,14 173,16.9563107 173,24.1262136 L173,24.8737864 C173,32.0097087 169.245614,35 164.017544,35 Z M169.947368,24.1262136 C169.947368,18.723301 167.666667,16.6504854 164.017544,16.6504854 C160.403509,16.6504854 158.052632,18.723301 158.052632,24.1262136 L158.052632,24.8737864 C158.052632,30.276699 160.333333,32.3495146 164.017544,32.3495146 C167.631579,32.3495146 169.947368,30.276699 169.947368,24.8737864 L169.947368,24.1262136 Z" id="Shape" fill="#44BE4C"></path>
                <g id="Group" transform="translate(17.000000, 29.000000)" fill="#FFFFFF">
                    <path d="M37.6822222,2.0028777 C34.9266667,1.17410072 27.3833333,0.0690647482 20.6322222,0.0690647482 C12.3311111,0.0690647482 0.172222222,2.9352518 0.172222222,21.2719424 L0.172222222,26.5899281 C0.172222222,44.6158273 12.09,47.7928058 20.0122222,47.7928058 C25.8677778,47.7928058 33.8588889,46.8604317 37.6822222,46.0316547 C38.8188889,45.7899281 38.9911111,45.7208633 38.9911111,44.6503597 L38.9911111,22.7223022 C38.9911111,21.9971223 38.4055556,21.4100719 37.6822222,21.4100719 L33.3422222,21.4100719 L27.4522222,21.4100719 L22.0788889,21.4100719 C21.39,21.4100719 20.8388889,21.9280576 20.8388889,22.5841727 L20.8388889,28.0748201 C20.8388889,28.7309353 21.39,29.2489209 22.0788889,29.2489209 L25.8333333,29.2489209 C26.04,29.2489209 26.2122222,29.4215827 26.2122222,29.628777 L26.2122222,34.4978417 C26.2122222,34.7741007 26.0055556,35.0158273 25.73,35.0158273 C24.2833333,35.1194245 20.5288889,35.1539568 20.0466667,35.1539568 C18.1866667,35.1539568 15.1211111,34.9122302 15.1211111,26.7280576 L15.1211111,21.2719424 C15.1211111,14.4 18.9444444,12.8805755 26.9355556,13.0877698 C30.7933333,13.1913669 36.0977778,13.4676259 37.9922222,13.7093525 C38.8533333,13.847482 39.06,13.5366906 39.06,12.5697842 L39.06,3.38417266 C38.9911111,2.55539568 38.9566667,2.38273381 37.6822222,2.0028777 Z" id="Path"></path>
                    <path d="M77.2588889,8.6676259 L67.2011111,8.6676259 C66.65,8.6676259 66.1677778,9.11654676 66.1677778,9.70359712 L66.1677778,32.3223022 C66.1677778,36.3971223 63.6877778,37.294964 61.0011111,37.294964 C58.3144444,37.294964 55.8344444,36.4316547 55.8344444,32.3223022 L55.8344444,9.70359712 C55.8344444,9.15107914 55.3522222,8.6676259 54.8011111,8.6676259 L44.7433333,8.6676259 C44.1922222,8.6676259 43.6755556,9.11654676 43.6755556,9.70359712 L43.6755556,32.3223022 C43.6755556,45.6172662 53.01,47.6546763 61.0355556,47.6546763 C69.0266667,47.6546763 78.3955556,45.6517986 78.3955556,32.3223022 L78.3955556,9.70359712 C78.3611111,9.11654676 77.8444444,8.6676259 77.2588889,8.6676259 Z" id="Path"></path>
                    <path d="M153.863333,8.6676259 L143.805556,8.6676259 C143.254444,8.6676259 142.772222,9.11654676 142.772222,9.70359712 L142.772222,32.3223022 C142.772222,36.3971223 140.292222,37.294964 137.605556,37.294964 C134.918889,37.294964 132.438889,36.4316547 132.438889,32.3223022 L132.438889,9.70359712 C132.438889,9.15107914 131.956667,8.6676259 131.405556,8.6676259 L121.347778,8.6676259 C120.796667,8.6676259 120.28,9.11654676 120.28,9.70359712 L120.28,32.3223022 C120.28,45.6172662 129.614444,47.6546763 137.64,47.6546763 C145.631111,47.6546763 155,45.6517986 155,32.3223022 L155,9.70359712 C154.931111,9.11654676 154.414444,8.6676259 153.863333,8.6676259 Z" id="Path"></path>
                    <path d="M109.808889,32.1151079 C112.598889,30.8719424 115.733333,27.6258993 115.733333,22.0661871 L115.733333,21.0302158 C115.733333,11.257554 109.292222,8.14964029 98.89,8.14964029 C95.3422222,8.14964029 87.6266667,8.49496403 85.87,8.77122302 C83.08,9.25467626 82.2533333,9.94532374 82.2533333,13.1568345 L82.2533333,46.1007194 C82.2533333,46.6532374 82.77,47.1366906 83.3211111,47.1366906 L93.3788889,47.1366906 C93.93,47.1366906 94.4122222,46.6532374 94.4122222,46.1007194 L94.4122222,33.9453237 L97.7877778,33.9453237 L103.918889,46.1007194 C104.194444,46.618705 104.401111,47.1366906 105.296667,47.1366906 L116.077778,47.1366906 C116.56,47.1366906 117.007778,46.7913669 117.007778,46.2043165 C117.007778,46.0316547 116.973333,45.8244604 116.87,45.6517986 L109.808889,32.1151079 Z M103.608889,22.1352518 C103.608889,23.5510791 102.61,24.8633094 100.061111,24.8633094 L94.4811111,24.8633094 L94.4811111,18.3366906 L100.061111,18.3366906 C102.678889,18.3366906 103.608889,19.3035971 103.608889,21.0647482 L103.608889,22.1352518 Z" id="Shape"></path>
                </g>
                <path d="M112.203046,23.745098 L109.111675,22.2352941 C106.873096,21 105.878173,20.2107843 105.878173,18.9754902 C105.878173,17.1568627 107.228426,16.4362745 110.532995,16.4362745 C111.847716,16.4362745 113.588832,16.504902 115.685279,16.6421569 L115.756345,16.6421569 C116.111675,16.6421569 116.360406,16.4362745 116.360406,16.127451 L116.360406,14.9264706 C116.360406,14.7205882 116.253807,14.4803922 115.791878,14.377451 C114.761421,14.2401961 112.451777,14 110.568528,14 C105.700508,14 103,15.75 103,18.9411765 C103,21.3431373 104.670051,22.75 107.192893,24.1568627 L110.426396,25.7696078 C113.055838,27.245098 113.979695,28.0343137 113.979695,29.4068627 C113.979695,31.5343137 112.416244,32.5980392 109.182741,32.5980392 C107.832487,32.5980392 105.664975,32.495098 104.243655,32.3921569 L104.137056,32.3921569 C103.781726,32.3921569 103.532995,32.5980392 103.532995,32.9068627 L103.532995,34.004902 C103.532995,34.3480392 103.639594,34.4852941 104.172589,34.5882353 L104.208122,34.5882353 C105.558376,34.7941176 107.086294,35 109.182741,35 C116.431472,35 117,30.7107843 117,29.4068627 C116.964467,27.1764706 115.685279,25.6323529 112.203046,23.745098 Z" id="Path" fill="#44BE4C"></path>
                <g id="Group" transform="translate(0.000000, 1.000000)">
                    <path d="M13.7318182,47.52 C13.5597403,47.52 13.4220779,47.4857143 13.2844156,47.3828571 C9.60194805,45.0857143 8.12207792,41.0057143 9.08571429,35.52 C9.67077922,32.16 12.6305195,27.3942857 15.7967532,24.6171429 C17.1045455,23.4857143 18.2746753,22.56 19.3415584,21.84 C19.2038961,21.6 19.0662338,21.2914286 18.962987,21.0514286 C18.7909091,21.36 18.55,21.6342857 18.3090909,21.8742857 C17.138961,22.9714286 16.6227273,23.2114286 16.2097403,23.2114286 C16.1753247,23.2114286 16.1409091,23.2114286 16.1064935,23.2114286 L16.1064935,23.2114286 C16.0376623,23.28 15.7967532,23.4857143 15.1772727,24.2742857 L15.074026,24.3771429 C12.7681818,27.12 10.6,29.7257143 9.36103896,32.2971429 C7.57142857,36 7.91558442,39.7371429 8.29415584,41.6571429 C8.32857143,41.8971429 8.29415584,42.1714286 8.12207792,42.3428571 C7.95,42.5485714 7.70909091,42.6514286 7.46818182,42.6514286 C7.22727273,42.6514286 7.02077922,42.5485714 6.8487013,42.3771429 C2.23701299,37.3714286 1.06688312,28.32 11.7701299,17.9657143 L11.838961,17.9314286 C13.3876623,16.6628571 15.4525974,15.1885714 16.6227273,14.4 C16.5883117,14.2971429 16.5883117,14.16 16.5883117,14.0571429 C15.9344156,14.5028571 15.1084416,15.0514286 14.075974,15.7714286 C7.81233766,20.6742857 4.1987013,25.8514286 3.33831169,31.0971429 C3.26948052,31.5085714 2.92532468,31.8171429 2.51233766,31.8171429 C2.2025974,31.8171429 1.92727273,31.6457143 1.75519481,31.3714286 C-0.447402597,27.3942857 2.06493506,23.8628571 3.13181818,22.3542857 C3.20064935,22.2514286 3.3038961,22.1142857 3.33831169,22.0457143 L3.37272727,22.0114286 C7.43376623,16.9028571 13.3188312,13.44 15.3837662,12.6514286 C15.7623377,12.5142857 16.1409091,12.3771429 16.4850649,12.3085714 C16.4850649,12.24 16.4850649,12.1714286 16.4850649,12.1028571 C13.0779221,13.2685714 7.36493506,17.3142857 4.1987013,20.7771429 C4.02662338,20.9485714 3.82012987,21.0514286 3.57922078,21.0514286 C3.13181818,21.0514286 2.75324675,20.7085714 2.71883117,20.2285714 C2.61558442,17.1428571 5.33441558,13.8857143 6.77987013,12.5828571 C7.67467532,11.7942857 10.1525974,10.1485714 12.7681818,8.57142857 C11.6668831,9.12 10.5311688,9.70285714 9.63636364,10.2171429 C9.4987013,10.2857143 9.36103896,10.32 9.22337662,10.32 C8.91363636,10.32 8.6038961,10.1485714 8.46623377,9.87428571 C8.32857143,9.6 8.32857143,9.25714286 8.53506494,9.01714286 C10.3590909,6.41142857 14.0071429,4.11428571 16.6915584,3.18857143 C16.9324675,3.12 17.2077922,3.05142857 17.4831169,3.05142857 C17.9993506,3.05142857 18.5844156,3.18857143 19.1694805,3.49714286 L19.7201299,3.42857143 C19.6857143,3.39428571 19.6857143,3.39428571 19.6512987,3.36 C19.4103896,3.05142857 19.3071429,2.64 19.375974,2.26285714 C19.4448052,1.95428571 19.6512987,1.68 19.961039,1.61142857 C21.2688312,1.23428571 24.9168831,0.685714286 29.0123377,0.685714286 C32.8324675,0.685714286 38.0980519,1.16571429 41.6084416,3.42857143 C41.9181818,3.63428571 42.0558442,4.01142857 41.9525974,4.38857143 C41.8493506,4.76571429 41.5051948,5.00571429 41.1266234,5.00571429 C41.0922078,5.00571429 41.0233766,5.00571429 40.988961,5.00571429 C40.2662338,4.86857143 39.4746753,4.76571429 38.5798701,4.76571429 C37.7194805,4.76571429 36.8246753,4.86857143 35.7922078,5.10857143 C35.7233766,5.10857143 35.6545455,5.14285714 35.6201299,5.14285714 C35.5168831,5.14285714 35.4136364,5.14285714 35.3448052,5.10857143 C34.9318182,4.97142857 34.5188312,4.83428571 34.1402597,4.73142857 C34.3123377,4.90285714 34.3811688,5.10857143 34.3811688,5.34857143 C34.3467532,5.69142857 34.1058442,6 33.7272727,6.10285714 C31.5590909,6.65142857 29.0811688,7.64571429 27.6012987,8.50285714 L28.4961039,9.39428571 C32.4538961,6.58285714 36.2396104,5.17714286 39.8188312,5.17714286 C43.6045455,5.17714286 46.0136364,6.75428571 47.0461039,7.44 C49.0766234,8.74285714 50.2811688,11.8628571 50.1435065,15.3942857 C50.1090909,15.84 49.7649351,16.2171429 49.2831169,16.2171429 C49.1454545,16.2171429 48.9733766,16.1828571 48.8357143,16.08 C44.5337662,13.5428571 39.3714286,13.2 35.3448052,13.2 C34.45,13.2 33.5551948,13.2342857 32.7980519,13.2342857 L32.4538961,13.2342857 C32.5227273,13.3028571 32.5915584,13.4057143 32.625974,13.5428571 L32.625974,13.5428571 C33.7961039,13.4742857 34.862987,13.4057143 35.8266234,13.4057143 C41.0233766,13.4057143 45.2564935,14.5714286 49.524026,17.1771429 C51.8298701,18.6514286 52.7935065,21.36 52.587013,25.68 C52.5525974,26.1257143 52.174026,26.5028571 51.761039,26.5028571 L51.761039,26.5028571 C51.6922078,26.5028571 51.6233766,26.5028571 51.5545455,26.4685714 L51.5545455,26.4685714 C51.7266234,26.8457143 51.8642857,27.2914286 51.9331169,27.7371429 C51.9675325,28.0457143 51.8987013,28.32 51.6922078,28.56 C51.5201299,28.7314286 51.3136364,28.8342857 51.0727273,28.8342857 C51.0383117,28.8342857 51.0038961,28.8342857 50.9350649,28.8342857 C49.9025974,28.6628571 49.524026,28.6285714 48.5603896,28.4914286 C48.2506494,28.4571429 48.0785714,28.2171429 48.0097403,28.1142857 C47.2525974,27.0171429 42.8818182,22.8 35.4480519,22.3542857 L35.4136364,22.3542857 L34.1746753,23.28 C34.3123377,23.28 34.45,23.28 34.5876623,23.28 C37.2720779,23.28 42.2967532,23.7257143 45.4974026,26.6057143 C45.7383117,26.8457143 45.8415584,27.1885714 45.7038961,27.5314286 C45.5662338,27.8742857 45.2564935,28.08 44.8779221,28.08 C44.8435065,28.08 44.8090909,28.08 44.8090909,28.08 C43.5012987,27.9428571 42.0902597,27.8742857 40.7136364,27.8742857 C38.5798701,27.8742857 36.6181818,28.0457143 35.4824675,28.2857143 C35.2415584,28.3542857 34.9318182,28.4228571 34.5532468,28.4914286 C30.561039,29.28 21.1655844,31.1657143 17.4831169,43.7828571 C17.3454545,44.2285714 16.8980519,44.5028571 16.2785714,44.5028571 C15.5558442,44.5028571 14.7987013,44.16 14.6954545,43.4742857 C14.2136364,40.6285714 14.5922078,34.8342857 22.8519481,27.9428571 L22.4733766,27.2571429 L22.1636364,27.6 C21.7506494,28.0457143 21.2688312,28.4914286 20.787013,29.0057143 C17.138961,32.6742857 12.1142857,37.68 14.7298701,46.5257143 C14.7987013,46.8 14.7642857,47.04 14.5922078,47.28 C14.2480519,47.3828571 14.0071429,47.52 13.7318182,47.52 Z" id="Path" fill="#44BE4C"></path>
                    <path d="M28.8746753,1.16571429 C33.1766234,1.16571429 37.9948052,1.74857143 41.161039,3.80571429 C41.4363636,3.97714286 41.2987013,4.42285714 40.988961,4.42285714 C40.9545455,4.42285714 40.9545455,4.42285714 40.9201299,4.42285714 C40.0597403,4.28571429 39.2681818,4.18285714 38.4077922,4.18285714 C37.5474026,4.18285714 36.6525974,4.28571429 35.5168831,4.52571429 C35.4824675,4.52571429 35.4824675,4.52571429 35.4480519,4.52571429 C35.4136364,4.52571429 35.3792208,4.52571429 35.3448052,4.49142857 C32.5915584,3.53142857 30.2512987,3.18857143 27.9454545,3.18857143 C26.7753247,3.18857143 25.6051948,3.25714286 24.3662338,3.39428571 C24.1253247,3.42857143 23.9876623,3.66857143 24.0909091,3.87428571 L24.1597403,4.01142857 C24.2285714,4.11428571 24.3318182,4.21714286 24.4694805,4.21714286 L24.4694805,4.21714286 C25.2954545,4.18285714 26.7064935,4.04571429 28.2207792,4.04571429 C30.0103896,4.04571429 31.9720779,4.21714286 33.4175325,4.86857143 C33.7616883,5.00571429 33.6928571,5.38285714 33.3487013,5.48571429 C31.0772727,6.06857143 28.4272727,7.13142857 26.8785714,8.05714286 C26.7064935,8.16 26.6720779,8.4 26.7753247,8.53714286 L27.9454545,9.70285714 C28.0142857,9.77142857 28.1175325,9.84 28.2207792,9.84 C28.2896104,9.84 28.3584416,9.80571429 28.4272727,9.77142857 C32.9357143,6.54857143 36.6525974,5.55428571 39.5779221,5.55428571 C43.1571429,5.55428571 45.5318182,7.06285714 46.5298701,7.71428571 C48.5603896,9.01714286 49.524026,12.1371429 49.3863636,15.1885714 C49.3863636,15.3942857 49.2142857,15.4971429 49.0422078,15.4971429 C48.9733766,15.4971429 48.938961,15.4971429 48.8701299,15.4628571 C44.5337662,12.8914286 39.3025974,12.5142857 35.1038961,12.5142857 C33.8649351,12.5142857 32.7292208,12.5485714 31.6967532,12.5485714 C31.387013,12.5485714 31.2493506,12.9257143 31.4902597,13.1314286 L31.8,13.3714286 C31.8344156,13.4057143 31.8688312,13.4742857 31.9032468,13.5085714 L31.9376623,13.6457143 C31.9720779,13.7828571 32.1097403,13.8514286 32.2474026,13.8514286 C32.2474026,13.8514286 32.2474026,13.8514286 32.2818182,13.8514286 C33.3831169,13.7828571 34.4844156,13.7142857 35.5857143,13.7142857 C39.9564935,13.7142857 44.2584416,14.5028571 49.0422078,17.4171429 C50.9694805,18.6514286 52.0707792,20.9485714 51.8642857,25.4742857 C51.8642857,25.6457143 51.6922078,25.7828571 51.5545455,25.7828571 C51.5201299,25.7828571 51.5201299,25.7828571 51.4857143,25.7828571 C50.35,25.5085714 49.3863636,22.7314286 46.8396104,21.8057143 C46.8051948,21.8057143 46.7707792,21.7714286 46.7363636,21.7714286 C46.461039,21.7714286 46.288961,22.1485714 46.5298701,22.3542857 C48.0785714,23.6914286 50.8318182,24.96 51.2103896,27.6342857 C51.2448052,27.8742857 51.1071429,28.1485714 50.9006494,28.1485714 L50.8662338,28.1485714 C49.7993506,27.9771429 49.4207792,27.9428571 48.4915584,27.8057143 C48.4227273,27.8057143 48.3538961,27.7371429 48.3194805,27.6685714 C47.7344156,26.8114286 43.3980519,22.1485714 35.3448052,21.7028571 C35.275974,21.7028571 35.2071429,21.6685714 35.1727273,21.6685714 L33.2798701,23.0742857 C33.0045455,23.28 33.1422078,23.6571429 33.4863636,23.6571429 L33.4863636,23.6571429 C33.7961039,23.6571429 34.1058442,23.6228571 34.45,23.6228571 C37.8227273,23.6228571 42.2279221,24.3085714 45.0155844,26.8114286 C45.2564935,27.0171429 45.0844156,27.3942857 44.7746753,27.3942857 L44.7402597,27.3942857 C43.3636364,27.2571429 41.9525974,27.1885714 40.6103896,27.1885714 C38.4077922,27.1885714 36.4116883,27.36 35.275974,27.6342857 C32.3162338,28.3542857 21.0279221,29.3828571 16.8980519,43.4742857 C16.8292208,43.7142857 16.5194805,43.8514286 16.1753247,43.8514286 C15.6935065,43.8514286 15.1428571,43.6114286 15.074026,43.2342857 C14.5922078,40.5257143 14.9707792,34.9028571 23.1616883,28.1142857 C23.2993506,28.0114286 23.3337662,27.84 23.2305195,27.7028571 C23.0584416,27.3942857 22.8863636,27.0514286 22.6454545,26.64 C22.5766234,26.5371429 22.4733766,26.4685714 22.3357143,26.4685714 C22.2324675,26.4685714 22.1636364,26.5028571 22.0948052,26.5714286 C21.9227273,26.7428571 21.7850649,26.9142857 21.612987,27.0857143 C18.1025974,30.8571429 11.012987,36.1714286 14.075974,46.4914286 C14.1448052,46.7314286 13.9727273,46.9371429 13.7662338,46.9371429 C13.6974026,46.9371429 13.662987,46.9371429 13.5941558,46.9028571 C9.84285714,44.6057143 8.77597403,40.4571429 9.63636364,35.5542857 C10.1525974,32.4685714 12.9402597,27.7371429 16.1753247,24.96 C17.5863636,23.7257143 18.7909091,22.8 19.788961,22.1142857 C19.9266234,22.0114286 19.961039,21.84 19.8922078,21.7028571 C19.6857143,21.3257143 19.4792208,20.88 19.2727273,20.4342857 C19.2038961,20.2971429 19.1006494,20.2285714 18.962987,20.2285714 C18.8597403,20.2285714 18.7220779,20.2971429 18.6876623,20.4 C18.5155844,20.7771429 18.2746753,21.12 17.9649351,21.3942857 C16.8292208,22.4914286 16.4506494,22.5942857 16.2097403,22.5942857 C16.1409091,22.5942857 16.1064935,22.5942857 16.0720779,22.5942857 C15.8655844,22.5942857 15.6590909,22.6971429 14.7642857,23.8628571 C12.424026,26.6742857 10.187013,29.3142857 8.87922078,31.9885714 C7.22727273,35.4171429 7.26168831,39.0514286 7.77792208,41.6571429 C7.81233766,41.8971429 7.64025974,42.0685714 7.43376623,42.0685714 C7.36493506,42.0685714 7.26168831,42.0342857 7.19285714,41.9657143 C3.57922078,38.0571429 0.585064935,29.4171429 12.0798701,18.2742857 C12.0798701,18.2742857 12.0798701,18.2742857 12.1142857,18.24 C13.662987,16.9371429 15.7279221,15.4971429 16.9324675,14.64 C17.0357143,14.5714286 17.1045455,14.4342857 17.0701299,14.2971429 C17.0012987,13.8857143 16.9324675,13.44 16.9324675,12.9942857 C16.3818182,13.3714286 15.3837662,14.0571429 13.662987,15.1885714 C13.662987,15.1885714 13.662987,15.1885714 13.6285714,15.1885714 C4.92142857,22.0114286 3.20064935,27.84 2.71883117,30.8571429 C2.68441558,31.0285714 2.54675325,31.1314286 2.37467532,31.1314286 C2.27142857,31.1314286 2.13376623,31.0628571 2.06493506,30.96 C-0.137662338,26.9485714 2.75324675,23.4514286 3.64805195,22.1485714 C3.64805195,22.1485714 3.64805195,22.1485714 3.64805195,22.1142857 C7.74350649,16.9714286 13.5253247,13.6457143 15.4181818,12.9257143 C15.9,12.7542857 16.2785714,12.6514286 16.5883117,12.5828571 C16.7603896,12.5485714 16.8636364,12.4114286 16.8636364,12.24 C16.8636364,12 16.8636364,11.7942857 16.8636364,11.6571429 C16.8636364,11.4514286 16.6915584,11.3142857 16.5194805,11.3142857 C16.4850649,11.3142857 16.4162338,11.3142857 16.3818182,11.3485714 C16.312987,11.3828571 16.2785714,11.3828571 16.2097403,11.4171429 C12.6305195,12.6171429 6.77987013,16.8342857 3.68246753,20.2285714 C3.61363636,20.2971429 3.51038961,20.3314286 3.44155844,20.3314286 C3.26948052,20.3314286 3.0974026,20.1942857 3.0974026,20.0228571 C3.02857143,17.1771429 5.60974026,14.0228571 6.98636364,12.7885714 C8.32857143,11.5885714 13.6285714,8.26285714 17.1045455,6.41142857 C17.2077922,6.37714286 17.2422078,6.27428571 17.2766234,6.17142857 C17.311039,6 17.3454545,5.86285714 17.3798701,5.69142857 C17.2077922,5.76 17.0701299,5.82857143 16.9324675,5.86285714 C15.9344156,6.17142857 11.7357143,8.16 9.25779221,9.56571429 C9.18896104,9.6 9.15454545,9.6 9.08571429,9.6 C8.84480519,9.6 8.63831169,9.32571429 8.81038961,9.08571429 C10.4967532,6.65142857 14.0071429,4.38857143 16.725974,3.46285714 C16.9324675,3.39428571 17.138961,3.36 17.3454545,3.36 C17.8961039,3.36 18.4123377,3.56571429 18.8597403,3.77142857 C18.8941558,3.80571429 18.962987,3.80571429 18.9974026,3.80571429 L19.0318182,3.80571429 L21.5441558,3.46285714 L21.5785714,3.39428571 C19.7545455,3.29142857 19.6857143,2.46857143 19.7545455,2.09142857 C19.788961,1.95428571 19.8577922,1.88571429 19.9954545,1.85142857 C21.1311688,1.74857143 24.7448052,1.16571429 28.8746753,1.16571429 M28.8746753,0.137142857 L28.8746753,1.16571429 L28.8746753,0.137142857 C24.7448052,0.137142857 20.9935065,0.685714286 19.6857143,1.06285714 C19.1694805,1.2 18.8253247,1.61142857 18.7220779,2.12571429 C18.6876623,2.33142857 18.6876623,2.57142857 18.7220779,2.77714286 C18.2402597,2.60571429 17.7928571,2.50285714 17.3454545,2.50285714 C17.0012987,2.50285714 16.6915584,2.53714286 16.3818182,2.64 L16.3818182,2.64 L16.3818182,2.64 C13.6285714,3.56571429 9.84285714,5.96571429 7.95,8.67428571 C7.67467532,9.08571429 7.64025974,9.63428571 7.84675325,10.08 C7.98441558,10.32 8.15649351,10.4914286 8.36298701,10.6285714 C7.43376623,11.2457143 6.71103896,11.7942857 6.29805195,12.1714286 C4.78376623,13.5085714 1.9961039,16.9371429 2.06493506,20.1942857 C2.06493506,20.7771429 2.44350649,21.2571429 2.99415584,21.4285714 C2.95974026,21.4971429 2.89090909,21.5314286 2.85649351,21.6 C2.82207792,21.6342857 2.82207792,21.6685714 2.78766234,21.6685714 C2.71883117,21.7714286 2.65,21.8742857 2.58116883,21.9771429 C1.44545455,23.5542857 -1.17012987,27.2571429 1.17012987,31.5428571 C1.41103896,31.9885714 1.85844156,32.2628571 2.37467532,32.2628571 C2.58116883,32.2628571 2.78766234,32.2285714 2.95974026,32.1257143 C2.92532468,32.3657143 2.92532468,32.5714286 2.89090909,32.8114286 C2.61558442,37.8171429 4.95584416,41.1428571 6.4012987,42.6857143 C6.67662338,42.96 7.02077922,43.1314286 7.39935065,43.1314286 C7.81233766,43.1314286 8.19090909,42.96 8.46623377,42.6171429 C8.6038961,42.4457143 8.70714286,42.2742857 8.74155844,42.0685714 C9.42987013,44.5028571 10.8409091,46.4228571 13.0090909,47.76 C13.2155844,47.8971429 13.4564935,47.9657143 13.7318182,47.9657143 C14.1448052,47.9657143 14.5577922,47.76 14.8331169,47.4171429 C15.1084416,47.0742857 15.1772727,46.6285714 15.0396104,46.2171429 C14.8675325,45.6 14.6954545,44.9828571 14.5922078,44.4 C15.0051948,44.7085714 15.5558442,44.88 16.1064935,44.88 C16.9668831,44.88 17.6207792,44.4685714 17.7928571,43.7828571 C21.4064935,31.4742857 30.561039,29.6228571 34.4844156,28.8342857 C34.862987,28.7657143 35.1727273,28.6971429 35.4480519,28.6285714 C36.5149351,28.3542857 38.4422078,28.2171429 40.5415584,28.2171429 C41.8837662,28.2171429 43.2948052,28.2857143 44.5681818,28.3885714 C44.6025974,28.3885714 44.6714286,28.3885714 44.7058442,28.3885714 C45.2909091,28.3885714 45.8071429,28.0457143 46.0136364,27.4971429 C46.0824675,27.2914286 46.1168831,27.0514286 46.0824675,26.8114286 C46.7707792,27.3942857 47.2181818,27.9085714 47.4246753,28.1828571 C47.6655844,28.5257143 47.9753247,28.7314286 48.3194805,28.7657143 C49.2831169,28.9028571 49.6272727,28.9371429 50.6941558,29.1085714 C50.762987,29.1085714 50.8318182,29.1085714 50.9006494,29.1085714 C51.2792208,29.1085714 51.6577922,28.9371429 51.8987013,28.6628571 C52.174026,28.32 52.3116883,27.8742857 52.2428571,27.4285714 C52.2084416,27.1542857 52.1396104,26.9142857 52.0707792,26.6742857 C52.5525974,26.4685714 52.8967532,26.0228571 52.9311688,25.4742857 C53.1720779,20.9485714 52.1051948,18.1028571 49.6272727,16.5257143 L49.6272727,16.5257143 L49.6272727,16.5257143 C49.5584416,16.4914286 49.524026,16.4571429 49.4551948,16.4228571 C50.0058442,16.2514286 50.4188312,15.7714286 50.4532468,15.1542857 C50.6253247,11.4171429 49.3519481,8.19428571 47.1493506,6.75428571 C46.3922078,6.27428571 44.7058442,5.17714286 42.2279221,4.66285714 C42.2967532,4.56 42.3311688,4.45714286 42.3655844,4.35428571 C42.5376623,3.77142857 42.2967532,3.15428571 41.7805195,2.81142857 C38.1324675,0.651428571 32.7292208,0.171428571 28.8746753,0.137142857 L28.8746753,0.137142857 Z M28.2207792,8.50285714 C28.4961039,8.36571429 28.7714286,8.22857143 29.0467532,8.09142857 C28.8058442,8.26285714 28.5649351,8.43428571 28.2896104,8.60571429 L28.2207792,8.50285714 L28.2207792,8.50285714 Z" id="Shape" fill="#000000"></path>
                </g>
                <g id="Group" transform="translate(23.000000, 19.000000)">
                    <path d="M2.73333333,15.2851064 C2.1,15.2851064 1.6,15.1148936 1.26666667,14.7744681 C0.766666667,14.2638298 0.8,13.5148936 0.833333333,12.9702128 C0.833333333,12.8340426 0.833333333,12.7319149 0.833333333,12.6297872 C0.8,12.3234043 0.8,11.8468085 0.833333333,11.0978723 C0.833333333,9.46382979 0.833333333,6.74042553 0.666666667,2.55319149 L0.666666667,2.24680851 L0.9,2.07659574 C1.1,1.94042553 2.8,0.782978723 3.86666667,0.782978723 C4.3,0.782978723 4.56666667,0.987234043 4.7,1.15744681 C4.86666667,1.36170213 5.56666667,2.21276596 6.43333333,3.26808511 C8.5,5.75319149 11.3,9.19148936 11.8333333,9.94042553 C12.2666667,10.5531915 12.2333333,11.0638298 12.1666667,11.4042553 C11.9666667,12.1531915 11.2333333,12.5617021 10.8333333,12.7319149 C10.7333333,12.7659574 8.43333333,13.787234 6.13333333,14.4 C4.63333333,15.012766 3.53333333,15.2851064 2.73333333,15.2851064 L2.73333333,15.2851064 Z" id="Path" fill="#FCEE21"></path>
                    <path d="M3.83333333,1.32765957 C4.03333333,1.32765957 4.16666667,1.36170213 4.26666667,1.49787234 C4.83333333,2.21276596 10.6333333,9.19148936 11.3666667,10.2808511 C12.1,11.3702128 11.2,12.0510638 10.5666667,12.3234043 C9.93333333,12.5957447 7.86666667,13.4468085 5.9,13.9914894 C4.4,14.5702128 3.4,14.8085106 2.73333333,14.8085106 C0.966666667,14.8085106 1.4,13.3106383 1.36666667,12.6297872 C1.3,11.6765957 1.46666667,8.64680851 1.16666667,2.55319149 C1.16666667,2.51914894 2.9,1.32765957 3.83333333,1.32765957 M3.83333333,0.306382979 C2.7,0.306382979 1.06666667,1.36170213 0.6,1.66808511 L0.133333333,1.97446809 L0.166666667,2.55319149 C0.366666667,6.74042553 0.366666667,9.46382979 0.333333333,11.0978723 C0.333333333,11.8468085 0.333333333,12.3234043 0.333333333,12.6638298 C0.333333333,12.7319149 0.333333333,12.8340426 0.333333333,12.9702128 C0.3,13.5148936 0.266666667,14.4340426 0.9,15.1489362 C1.33333333,15.5914894 1.93333333,15.8297872 2.7,15.8297872 C3.56666667,15.8297872 4.7,15.5574468 6.2,14.9787234 C8.56666667,14.3319149 10.8666667,13.3106383 10.9666667,13.2765957 C11.4666667,13.0723404 12.3333333,12.5617021 12.6,11.6085106 C12.7333333,11.1659574 12.7333333,10.4851064 12.2,9.70212766 C11.7,8.98723404 9.36666667,6.12765957 6.76666667,2.99574468 C5.9,1.94042553 5.2,1.0893617 5.03333333,0.885106383 C4.86666667,0.646808511 4.5,0.306382979 3.83333333,0.306382979 L3.83333333,0.306382979 Z" id="Shape" fill="#000000"></path>
                </g>
                <g id="Group" transform="translate(12.000000, 0.000000)">
                    <path d="M8.03947368,29.1976744 C5.91842105,29.1976744 3.69473684,28.0813953 2.25789474,26.2674419 C0.889473684,24.5581395 0.376315789,22.5 0.821052632,20.4418605 L0.923684211,20.0232558 C1.53947368,17.0581395 3.38684211,7.98837209 6.22631579,1.3255814 L6.43157895,0.837209302 L6.91052632,1.04651163 C9.92105263,2.47674419 22.4763158,13.2906977 23.5710526,14.4069767 C25.2815789,16.1511628 25.7605263,18.5930233 24.8026316,20.9302326 C23.7763158,23.4418605 21.4842105,25.0465116 18.8842105,25.0465116 L18.8842105,25.0465116 C17.3105263,25.0465116 15.7368421,24.4534884 14.1973684,23.3023256 C13.3421053,27.0348837 11.0842105,29.1976744 8.03947368,29.1976744 Z" id="Path" fill="#FCEE21"></path>
                    <path d="M6.67105263,1.53488372 C9.64736842,2.93023256 22.1684211,13.7790698 23.1605263,14.7906977 C26.7184211,18.4186047 23.6736842,24.5232558 18.85,24.5232558 C17.3105263,24.5232558 15.6,23.8953488 13.8552632,22.3604651 C13.1026316,26.8953488 10.6052632,28.6744186 8.03947368,28.6744186 C4.31052632,28.6744186 0.410526316,24.9418605 1.3,20.5465116 C1.81315789,18.2093023 3.72894737,8.51162791 6.67105263,1.53488372 M6.15789474,0.139534884 L5.74736842,1.11627907 C2.90789474,7.84883721 1.02631579,16.9186047 0.410526316,19.9186047 L0.307894737,20.3372093 C-0.136842105,22.5348837 0.410526316,24.7674419 1.84736842,26.6162791 C3.38684211,28.5348837 5.74736842,29.755814 8.03947368,29.755814 C11.1184211,29.755814 13.4447368,27.6976744 14.5052632,24.1744186 C15.9078947,25.0813953 17.4131579,25.5697674 18.8842105,25.5697674 C21.6552632,25.5697674 24.1868421,23.8255814 25.2815789,21.1046512 C26.3078947,18.5930233 25.7947368,15.9069767 23.9473684,14.0232558 C22.8184211,12.872093 10.2973684,2.05813953 7.15,0.558139535 L6.15789474,0.139534884 L6.15789474,0.139534884 Z" id="Shape" fill="#000000"></path>
                </g>
            </g>
        </g>
    </g>
</svg>