<svg version="1.1" id="Слой_1" xmlns="http://www.w3.org/2000/svg" xmlns:xlink="http://www.w3.org/1999/xlink" x="0px" y="0px"
	 viewBox="0 0 868 1000" style="enable-background:new 0 0 868 1000;" xml:space="preserve">
<g>
	<g>
		<path d="M206.6,605.6v-6.71c0-25.56,4.79-69.96,14.38-133.2c14.69-95.61,30.24-171.1,46.63-226.47c2.99-20.01,5.65-34.39,8-43.13
			c4.26-16.39,8.08-32.04,11.49-46.95c7.46-32.58,11.62-55.15,12.47-67.72c0.85-12.56,1.28-21.29,1.28-26.19
			c0-22.57-4.9-33.86-14.69-33.86c-6.82,0-15.66,5.01-26.51,15.02c-16.82,15.97-32.41,34.87-46.79,56.69
			c-14.38,21.83-22.84,37.97-25.4,48.4c-0.43,1.27-1.23,2.66-2.39,4.15c-1.18,1.5-2.29,2.45-3.36,2.88
			c-1.06,0.43-1.91,0.64-2.54,0.64c-1.5,0-2.24-0.64-2.24-1.92v-0.96c2.76-11.71,12.08-29.6,27.94-53.66
			c15.87-24.06,32.85-44.83,50.95-62.29c14.48-13.41,26.73-20.12,36.74-20.12c12.78,0,19.17,13.31,19.17,39.93
			c0,28.54-7.25,70.6-21.73,126.17c24.07-57.28,51.21-98.81,81.47-124.58c23.84-20.23,46.84-30.34,68.98-30.34
			c12.78,0,24.17,3.31,34.18,9.91c23.21,15.12,34.82,41.74,34.82,79.86c0,59.63-42.06,116.8-126.18,171.52
			c-23.84,15.77-52.59,33.22-86.24,52.39c-1.5,0.86-4.42,2.67-8.78,5.44c-4.37,2.77-6.55,6.71-6.55,11.82
			c0,7.66,4.16,17.04,12.45,28.11c11.29,14.9,27.05,30.45,47.27,46.63c31.52,24.7,65.01,46.63,100.47,65.8
			c35.46,19.17,63.5,30.34,84.16,33.54c1.06,0.22,1.6,1.07,1.6,2.55c0,1.07-0.48,2.29-1.43,3.67c-0.96,1.39-2.14,2.56-3.52,3.52
			c-1.38,0.96-2.71,1.44-3.99,1.44c-20.66-3.4-48.99-14.74-84.96-34.02c-35.99-19.27-69.75-41.37-101.27-66.27
			c-40.68-32.37-61.01-58.67-61.01-78.9c0-10.86,5.44-19.81,16.29-26.83l21.08-12.46c23.42-13.41,46.91-27.69,70.43-42.8
			c23.54-15.12,45.1-32.05,64.7-50.79c36.4-34.49,54.61-71.12,54.61-109.88c0-35.14-10.97-59.84-32.9-74.11
			c-9.38-5.96-20.01-8.94-31.93-8.94c-18.97,0-38.76,8.52-59.43,25.56c-37.9,32.58-69.95,91.35-96.15,176.32
			c-4.89,34.08-10.42,75.92-16.61,125.53c0,3.41-5,42.6-15.01,117.55c-11.5,85.18-21.61,131.28-30.34,138.31
			c-1.5,1.06-2.88,1.7-4.16,1.92C208.63,617.74,206.82,613.69,206.6,605.6z M250.68,368.91l6.07-49.19
			c-10.01,49.4-18.42,96.57-25.23,141.5c-9.59,63.67-14.38,108.06-14.38,133.2l0.32,7.99C223.21,579.19,234.28,501.37,250.68,368.91
			z"/>
	</g>
	<g>
		<path d="M452.14,479.12c-18.28-12.97-27.88-34.08-28.76-63.33c-7.2-13.86-10.8-29.65-10.8-47.37c0-14.52,2.16-29.48,6.48-44.88
			c9.86-33.35,27.31-62.44,52.36-87.27c11.64-11.41,23.97-20.53,36.99-27.34c13.02-6.82,25.85-10.22,38.48-10.22
			c14.84,0,27.43,4.71,37.73,14.13c12.97,11.64,21.56,29.09,25.77,52.36c2.11,11.08,3.16,22.77,3.16,35.07
			c0,19.61-2.49,39.84-7.48,60.67c-9.19,38.23-24.65,69.54-46.38,93.92c-20.83,23.5-44.6,35.24-71.31,35.24
			C474.29,490.09,462.23,486.43,452.14,479.12z M556.86,452.69c20.28-22.94,34.91-52.8,43.88-89.6c4.87-20.39,7.31-40.17,7.31-59.34
			c0-25.04-4.12-46.4-12.38-64.08s-21.03-28.84-38.32-33.49c-4.32-1.11-8.93-1.66-13.8-1.66c-11.75,0-23.64,3.13-35.66,9.39
			s-23.4,14.65-34.16,25.18c-23.49,23.38-39.94,50.87-49.37,82.45c-3.44,12.3-5.35,22.11-5.73,29.42
			c-0.38,7.31-0.58,12.03-0.58,14.13c0,13.63,1.99,25.43,5.98,35.41c2.88-33.02,16.96-67.55,42.22-103.56
			c1.11-1.55,2.33-2.33,3.66-2.33c0.66,0,1,0.39,1,1.16c0,0.66-0.28,1.39-0.83,2.16c-27.38,39.01-41.06,76.85-41.06,113.53
			c6.53,12.53,17.07,22.88,31.58,31.08c0.33,0.22,0.5,0.61,0.5,1.16c0,0.66-0.33,1.5-1,2.49c-1.21,1.33-2.33,1.99-3.32,1.99
			l-0.66-0.17c-10.85-5.98-19.5-13.24-25.93-21.78c3.32,21.5,12.25,37.34,26.76,47.54c9.64,7.09,21.23,10.64,34.74,10.64
			C515.85,484.44,537.58,473.86,556.86,452.69z"/>
	</g>
	<g>
		<path d="M12,772.11c0-14.8,14.18-31.06,42.53-48.78c0.42-4.59,0.63-8.76,0.63-12.51c0-7.51-0.94-13.71-2.81-18.61
			s-4.27-7.35-7.19-7.35c-4.17,0-10.32,7.61-18.45,22.83c-1.67,2.92-4.07,4.79-7.19,5.63c-1.67,0-2.5-0.83-2.5-2.5
			c0-9.8,0.94-26.16,2.81-49.1c12.09-102.78,32.52-178.76,61.29-227.96c21.47-36.27,41.07-54.41,58.79-54.41
			c6.05,0,10.99,2.66,14.86,7.97c3.84,5.32,5.77,13.6,5.77,24.86l-0.31,7.51c-1.04,22.93-11.63,55.04-31.73,96.31
			c-20.14,41.28-53.01,90.48-98.67,147.6c-1.25,10.63-1.88,20.01-1.88,28.14c8.34-11.88,16.16-17.82,23.45-17.82
			c4.79,0,8.38,3.02,10.8,9.07c2.38,6.05,3.59,13.13,3.59,21.26c0,3.75-0.21,7.82-0.63,12.2c10.22-6.05,20.64-12.09,31.27-18.14
			c24.6-13.13,43.57-25.33,56.91-36.59c1.46-1.88,3.13-2.81,5-2.81c1.46,0,2.19,0.73,2.19,2.19c0,6.46-21.47,21.89-64.42,46.28
			c-11.47,6.46-22.41,12.82-32.83,19.08c-8.13,33.36-20.22,52.95-36.27,58.79c-2.08,0.63-3.96,0.94-5.63,0.94
			C15.13,786.19,12,781.5,12,772.11z M35.45,771.18c6.46-5.63,12.09-18.14,16.89-37.53c-19.8,12.93-29.71,24.29-29.71,34.09
			c0,5,1.67,7.51,5,7.51C29.72,775.24,32.33,773.89,35.45,771.18z M120.82,514.44c19.39-40.44,29.08-72.34,29.08-95.69
			c0-10.22-1.67-17.72-5-22.51c-2.92-3.96-6.57-5.94-10.94-5.94c-12.51,0-27.31,14.49-44.4,43.47
			c-13.13,22.31-25.23,53.26-36.27,92.87c-9.59,34.61-17.09,76.09-22.52,124.46C72.46,598.14,102.48,552.59,120.82,514.44z"/>
	</g>
	<g>
		<path d="M149.59,703.32c-2.71-4.38-4.07-9.59-4.07-15.64c0-6.67,2.08-15.11,6.25-25.33l1.88-3.13
			c5.84-10.42,11.26-15.64,16.26-15.64c5.21,0,9.49,5.63,12.82,16.89c0.21,0.83,0.31,1.77,0.31,2.81c0,6.46-4.38,12.51-13.13,18.14
			c-5,3.34-9.49,5-13.45,5c1.88,8.76,7.19,15.11,15.95,19.08c4.59,1.88,9.69,2.81,15.32,2.81c11.47,0,23.56-4.17,36.27-12.51
			c11.26-7.09,22.2-17.93,32.83-32.52c2.08-2.92,4.38-4.38,6.88-4.38c1.25,0,1.88,0.83,1.88,2.5c0,1.04-0.52,2.4-1.56,4.07
			c-12.72,17.51-25.85,30.54-39.4,39.09c-15.22,9.8-29.39,14.7-42.53,14.7C166.69,719.27,155.85,713.95,149.59,703.32z
			 M171.48,670.8c0.63-0.63,0.94-1.25,0.94-1.88v-0.63c-2.08-7.51-4.48-11.99-7.19-13.45c-0.63,0-1.67,1.46-3.13,4.38l-1.88,4.07
			c-1.25,3.13-1.88,5.63-1.88,7.51c0,3.13,1.36,4.69,4.07,4.69h0.94C166.89,675.07,169.61,673.51,171.48,670.8z"/>
	</g>
	<g>
		<path d="M305.32,702.38c-2.71-4.79-4.07-11.05-4.07-18.76l0.31-5.94c-10.22,8.96-20.53,13.45-30.96,13.45
			c-3.96,0-7.4-0.68-10.32-2.03c-2.92-1.36-5.05-3.18-6.4-5.47s-2.04-4.69-2.04-7.19c0-3.54,1.25-7.61,3.75-12.2
			c6.25-10.01,14.49-17.2,24.7-21.58c4.79-2.08,9.38-3.13,13.76-3.13c8.55,0.42,13.45,5.21,14.7,14.38
			c1.88-3.96,4.38-5.94,7.51-5.94c1.46,0,2.19,0.73,2.19,2.19l-2.81,8.13c-2.5,6.25-3.75,13.03-3.75,20.33
			c0,18.35,8.86,27.52,26.58,27.52c3.96,0,8.03-0.52,12.2-1.56c20.22-5,40.24-18.97,60.04-41.9c2.08-2.5,4.17-3.75,6.25-3.75
			c1.25,0,1.88,0.73,1.88,2.19c0.21,1.46-0.52,3.13-2.19,5c-23.14,26.89-46.59,43.26-70.36,49.1c-4.79,1.25-9.38,1.88-13.76,1.88
			C319.6,717.08,310.53,712.18,305.32,702.38z M304.38,664.54l1.88-4.69c-2.08,2.08-3.96,3.13-5.63,3.13
			c-1.46,0-2.19-0.63-2.19-1.88c-0.83-7.09-4.48-10.63-10.94-10.63c-2.92,0-6.05,0.63-9.38,1.88c-6.05,2.71-10.74,6.78-14.07,12.2
			c-1.04,2.08-1.56,3.96-1.56,5.63c0,1.46,0.42,2.97,1.25,4.53c0.83,1.56,2.44,2.87,4.84,3.91s5.17,1.56,8.3,1.56
			C287.5,680.18,296.67,674.97,304.38,664.54z M315.64,658.6c-0.42,0.83-0.94,1.56-1.56,2.19L315.64,658.6z"/>
	</g>
	<g>
		<path d="M453.86,702.38c-1.46-2.5-2.5-5.42-3.13-8.76c-9.8,15.01-20.33,22.52-31.58,22.52c-3.34,0-6.25-0.94-8.76-2.81
			c-4.17-2.92-6.25-8.03-6.25-15.32c0-8.55,1.36-18.35,4.07-29.39l0.63-1.88c1.04-5.21,3.65-8.76,7.82-10.63
			c1.04-0.63,1.98-0.94,2.81-0.94c0.63,0,1.25,0.16,1.88,0.47c0.63,0.31,0.94,0.99,0.94,2.03c0,2.08-1.15,4.07-3.44,5.94l-0.31,0.63
			c-2.08,8.13-3.44,16.99-4.07,26.58c0,6.05,1.67,10.22,5,12.51c1.67,1.25,3.54,1.88,5.63,1.88c2.71,0,5.32-0.73,7.82-2.19
			c7.51-3.75,13.65-14.7,18.45-32.83l0.63-3.44c0.21-0.21,0.31-0.52,0.31-0.94c0-0.83,0.42-1.56,1.25-2.19
			c0-0.21,0.1-0.42,0.31-0.63c0.21-0.21,0.42-0.42,0.63-0.63l0.31-0.63h0.31c1.46-1.88,3.23-2.81,5.32-2.81
			c1.25,0,1.88,0.73,1.88,2.19l-0.63,4.69c-0.83,4.59-1.25,8.86-1.25,12.82c0,18.35,8.86,27.52,26.58,27.52
			c3.75,0,7.82-0.52,12.2-1.56c20.22-5,40.24-18.97,60.04-41.9c2.08-2.5,4.07-3.75,5.94-3.75c1.46,0,2.19,0.73,2.19,2.19
			s-0.73,3.13-2.19,5c-23.14,26.89-46.59,43.26-70.36,49.1c-5,1.25-9.59,1.88-13.76,1.88C468.14,717.08,459.07,712.18,453.86,702.38
			z"/>
	</g>
	<g>
		<path d="M557.68,707.7c0.21-11.88,1.04-25.43,2.5-40.65c3.13-33.56,7.51-63.9,13.13-91l-11.88,0.31c-15.64,0-31.17-1.67-46.59-5
			c-0.83-0.21-1.25-1.15-1.25-2.81c0-2.5,1.56-4.79,4.69-6.88c1.46-0.63,2.81-0.94,4.07-0.94c15.22,3.13,32.94,4.69,53.16,4.69
			c12.09-55.87,27.52-99.75,46.28-131.65c2.08-3.54,4.48-5.32,7.19-5.32c1.46,0,2.19,0.73,2.19,2.19c0,0.83-0.31,1.88-0.94,3.13
			c-18.35,31.48-33.46,75.15-45.34,131.02c5.21-0.63,10.42-1.46,15.64-2.5c22.52-3.96,42.74-13.13,60.67-27.52
			c1.46-1.25,3.02-1.88,4.69-1.88c0.83,0,1.46,0.42,1.88,1.25c0,2.5-1.25,5-3.75,7.51c-24.39,19.39-51.49,30.54-81.3,33.46
			c-5,26.06-9.07,54.93-12.2,86.62c-1.46,14.59-2.19,29.81-2.19,45.66c0,32.31,4.69,53.99,14.07,65.04
			c4.79,5.84,10.42,8.76,16.89,8.76c7.71,0,16.99-4.17,27.83-12.51c26.48-21.68,51.7-56.29,75.68-103.82
			c2.08-3.54,4.48-5.52,7.19-5.94c1.67,0,2.5,0.73,2.5,2.19c0,0.83-0.21,1.77-0.63,2.81c-25.64,50.66-53.16,87.98-82.56,111.95
			c-13.55,10.63-25.75,15.95-36.59,15.95C569.35,791.81,557.68,763.77,557.68,707.7z"/>
	</g>
	<g>
		<path d="M607.71,973.5c-2.71-7.3-4.07-16.16-4.07-26.58c0-20.43,4.59-43.05,13.76-67.86c8.55-22.72,20.12-43.05,34.71-60.98
			c22.52-25.85,51.18-49.72,85.99-71.61c2.08-16.26,3.96-33.46,5.63-51.6c-9.59,14.18-19.91,21.26-30.96,21.26
			c-3.13,0-5.94-0.94-8.44-2.81c-4.17-2.92-6.25-8.03-6.25-15.32c0-8.55,1.36-18.35,4.07-29.39c1.04-6.05,3.75-10.22,8.13-12.51
			c1.25-0.63,2.29-0.94,3.13-0.94c1.88,0,2.81,0.83,2.81,2.5c0,1.67-1.15,3.75-3.44,6.25c-2.29,8.34-3.75,17.3-4.38,26.89
			c0,9.59,3.44,14.38,10.32,14.38c12.09,0,21.16-12.72,27.21-38.15c1.46-17.09,2.19-26.68,2.19-28.77c0.63-3.13,2.5-5.63,5.63-7.51
			c1.25-0.63,2.29-0.94,3.13-0.94c1.25,0,1.88,0.83,1.88,2.5c-2.08,37.53-5.42,73.38-10.01,107.57
			c26.27-16.26,44.82-28.46,55.66-36.59c15.43-11.26,29.81-24.81,43.15-40.65c2.08-2.5,4.17-3.75,6.25-3.75
			c1.46,0,2.19,0.94,2.19,2.81c0,1.25-0.73,2.71-2.19,4.38c-14.8,17.51-30.4,32.26-46.74,44.25
			c-16.39,11.99-33.31,23.19-50.83,33.62l-8.76,5.63c-12.72,90.48-31.69,155.62-56.91,195.44c-19.18,30.44-39.3,45.66-60.35,45.66
			C619.8,990.7,612.3,984.96,607.71,973.5z M684.95,941.29c22.52-37.32,39.82-99.02,51.91-185.12
			c-31.48,19.6-57.75,41.49-78.8,65.67c-13.34,16.26-23.77,34.81-31.27,55.66c-8.55,23.56-12.82,44.61-12.82,63.17
			c0,22.1,5.84,34.92,17.51,38.46c1.46,0.42,3.02,0.63,4.69,0.63C653.26,979.75,669.52,966.93,684.95,941.29z"/>
	</g>
</g>
</svg>
