<?xml version="1.0" encoding="UTF-8"?>
<svg width="48px" height="60px" viewBox="0 0 48 60" version="1.1" xmlns="http://www.w3.org/2000/svg" xmlns:xlink="http://www.w3.org/1999/xlink">
    <!-- Generator: Sketch 58 (84663) - https://sketch.com -->
    <title>noun_shopping_3457971</title>
    <desc>Created with Sketch.</desc>
    <g id="Page-1" stroke="none" stroke-width="1" fill="none" fill-rule="evenodd">
        <g id="noun_shopping_3457971" fill="#000000" fill-rule="nonzero">
            <path d="M48,51.8 L44.6,13.1 C44.5,12.2 43.8,11.6 43,11.6 L35.9,11.6 C35.7,5.2 30.5,0 24,0 C17.5,0 12.3,5.2 12.2,11.7 L5.1,11.7 C4.2,11.7 3.5,12.3 3.5,13.2 L0,51.8 C0,51.8 0,51.9 0,51.9 C0,56.3 4,59.9 9,59.9 L39,59.9 C44,59.9 48,56.3 48,51.9 C48,51.9 48,51.9 48,51.8 Z M24,3.3 C28.6,3.3 32.4,7 32.5,11.6 L15.5,11.6 C15.6,7.1 19.4,3.3 24,3.3 Z M39,56.7 L9,56.7 C5.9,56.7 3.4,54.6 3.3,52.1 L6.6,15 L12.1,15 L12.1,20 C12.1,20.9 12.8,21.7 13.8,21.7 C14.8,21.7 15.5,21 15.5,20 L15.5,15 L32.6,15 L32.6,20 C32.6,20.9 33.3,21.7 34.3,21.7 C35.3,21.7 36,21 36,20 L36,15 L41.5,15 L44.8,52.1 C44.6,54.6 42.1,56.7 39,56.7 Z" id="Shape"></path>
        </g>
    </g>
</svg>